# xmcd
#
# Track frame offsets:
#	150
#	17051
#	34289
#	48246
#	61797
#	74670
#	88068
#	106347
#	120780
#	137936
#	152422
#	165803
#	180377
#	193768
#
# Disc length: 2775 seconds
#
# Revision: 0
# Processed by: cddbd v1.5.2PL0 Copyright (c) Steve Scherf et al.
# Submitted via: audiograbber 1.83.01
#
DISCID=ae0ad50e
DTITLE=Hofmann, Peter - Love me tender
DYEAR=1992
DGENRE=Oldies
TTITLE0=His latest flame
TTITLE1=Surrender
TTITLE2=Are you lonesome tonight
TTITLE3=Kiss me quick
TTITLE4=She's not you
TTITLE5=Love me
TTITLE6=It's now or never
TTITLE7=Little sister
TTITLE8=Crying in the chapel
TTITLE9=Don't
TTITLE10=A fool such as I
TTITLE11=Can't help falling in love
TTITLE12=Good look charme
TTITLE13=Love me tender
EXTD=Peter Hoffmann singt Elvis
EXTT0=
EXTT1=
EXTT2=
EXTT3=
EXTT4=
EXTT5=
EXTT6=
EXTT7=
EXTT8=
EXTT9=
EXTT10=
EXTT11=
EXTT12=
EXTT13=
PLAYORDER=
